<svg xmlns="http://www.w3.org/2000/svg" viewBox="0 0 128 128">
  <!-- Feet -->
  <path fill="#e9a41d" d="M102.3 105.4c-2.4-1.2-5.4-3.4-9.3-3.6-5.8-.3-11.4 3.7-18.7 3.7-3.4 0-6.8-.7-9.4-1.9-2.3 1.2-5.6 1.9-9 1.9-7.3 0-12.9-4-18.7-3.7-3.9.2-6.9 2.4-9.3 3.6-6.5 3.3-8.8 8.8-4.3 12.3 5.4 4.3 17.5 5.5 27.8 1.9 4.8-1.7 9.5-4.8 13.9-4.8 4.4 0 9.1 3.1 13.9 4.8 10.3 3.6 22.4 2.4 27.8-1.9 4.5-3.5 2.2-9-4.7-12.3z"/>
  <!-- Black Penguin Body -->
  <path fill="#231f20" d="M64.2 4.1c-16.7 0-25.2 12.3-25.2 27.8 0 7.2 2.2 13.3 4.2 18.5-9.1 7.9-15.6 19.8-15.6 34.2 0 8.7 3.3 17.5 8.1 24.6 4.9 7.2 12 12.8 20.3 14.8 2.6.6 5.3 1 8.2 1 2.9 0 5.6-.4 8.2-1 8.3-2 15.4-7.6 20.3-14.8 4.8-7.1 8.1-15.9 8.1-24.6 0-14.4-6.5-26.3-15.6-34.2 2-5.2 4.2-11.3 4.2-18.5 0-15.5-8.5-27.8-25.2-27.8z"/>
  <!-- White Chest & Belly -->
  <path fill="#ffffff" d="M64.2 48.3c-13.6 0-24.2 13.8-24.2 29.8 0 14.9 9.1 27.2 21.6 29.5 1.7.3 3.4.4 5.2.4 1.8 0 3.5-.1 5.2-.4 12.5-2.3 21.6-14.6 21.6-29.5 0-16-10.6-29.8-24.2-29.8z"/>
  <!-- Orange Beak -->
  <path fill="#f39c12" d="M64.2 37.5c-6.8 0-12.4 2.8-13.8 6.6 2.3 2.6 7.6 5.8 13.8 5.8s11.5-3.2 13.8-5.8c-1.4-3.8-7-6.6-13.8-6.6z"/>
  <!-- Left Eye -->
  <ellipse cx="54.5" cy="24.8" rx="4.5" ry="6.8" fill="#ffffff"/>
  <ellipse cx="56.2" cy="25.5" rx="2.5" ry="3.8" fill="#231f20"/>
  <circle cx="57" cy="24" r="1" fill="#ffffff"/>
  <!-- Right Eye -->
  <ellipse cx="73.9" cy="24.8" rx="4.5" ry="6.8" fill="#ffffff"/>
  <ellipse cx="72.2" cy="25.5" rx="2.5" ry="3.8" fill="#231f20"/>
  <circle cx="73" cy="24" r="1" fill="#ffffff"/>
</svg>
